HIERARCHY
ROOT mug2
{
	OFFSET 0.000000 0.000000 0.000000
	CHANNELS 6 Xposition Yposition Zposition Yrotation Xrotation Zrotation
	End Site
	{
		OFFSET 0.000000 0.000000 0.000000
	}
}
MOTION
Frames: 157
Frame Time: 0.008333334
2.737705 3.342147 2.989000 13.027740 0.456353 -1.432922 
2.737705 3.342147 2.989000 13.027740 0.456353 -1.432922 
2.737705 3.342147 2.989000 13.027740 0.456353 -1.432922 
2.737705 3.342147 2.989000 13.027740 0.456353 -1.432922 
2.737705 3.342147 2.989000 13.027740 0.456353 -1.432922 
2.737705 3.342147 2.989000 13.027740 0.456353 -1.432922 
2.737705 3.342147 2.989000 13.027740 0.456353 -1.432922 
2.737705 3.342147 2.989000 13.027740 0.456353 -1.432922 
2.737705 3.342147 2.989000 13.027740 0.456353 -1.432922 
2.737705 3.342147 2.989000 13.027740 0.456353 -1.432922 
2.737705 3.342147 2.989000 13.027740 0.456353 -1.432922 
2.737705 3.342147 2.989000 13.027740 0.456353 -1.432922 
2.737705 3.342147 2.989000 13.027740 0.456353 -1.432922 
2.737705 3.342147 2.989000 13.027740 0.456353 -1.432922 
2.737705 3.342147 2.989000 13.027740 0.456353 -1.432922 
2.737705 3.342147 2.989000 13.027740 0.456353 -1.432922 
2.737705 3.342147 2.989000 13.027740 0.456353 -1.432922 
2.737705 3.342147 2.989000 13.027740 0.456353 -1.432922 
2.737705 3.342147 2.989000 13.027740 0.456353 -1.432922 
2.737705 3.342147 2.989000 13.027740 0.456353 -1.432922 
2.737705 3.342147 2.989000 13.027740 0.456353 -1.432922 
2.737705 3.342147 2.989000 13.027740 0.456353 -1.432922 
2.737705 3.342147 2.989000 13.027740 0.456353 -1.432922 
2.737705 3.342147 2.989000 13.027740 0.456353 -1.432922 
2.737705 3.342147 2.989000 13.027740 0.456353 -1.432922 
2.737705 3.342147 2.989000 13.027740 0.456353 -1.432922 
2.737705 3.342147 2.989000 13.027740 0.456353 -1.432922 
2.737705 3.342147 2.989000 13.027740 0.456353 -1.432922 
2.737705 3.342147 2.989000 13.027740 0.456353 -1.432922 
2.737705 3.342147 2.989000 13.027740 0.456353 -1.432922 
2.737705 3.342147 2.989000 13.027740 0.456353 -1.432922 
2.737705 3.342147 2.989000 13.027740 0.456353 -1.432922 
2.737705 3.342147 2.989000 13.027740 0.456353 -1.432922 
2.737705 3.342147 2.989000 13.027740 0.456353 -1.432922 
2.737705 3.342147 2.989000 13.027740 0.456353 -1.432922 
2.737705 3.342147 2.989000 13.027740 0.456353 -1.432922 
2.737705 3.342147 2.989000 13.027740 0.456353 -1.432922 
2.737237 3.342182 2.988387 13.021530 0.439720 -1.436890 
2.736933 3.342083 2.987935 13.019420 0.436053 -1.440002 
2.736969 3.341745 2.987355 13.088740 0.546228 -1.373718 
2.737116 3.341276 2.986867 13.087180 0.674613 -1.300232 
2.737713 3.341293 2.986327 13.175080 0.640603 -1.338806 
2.737853 3.341132 2.986277 13.182640 0.605714 -1.342224 
2.737782 3.341460 2.986146 13.117550 0.582141 -1.365540 
2.737883 3.341461 2.986081 13.112570 0.579047 -1.367432 
2.737670 3.341555 2.986222 13.126580 0.580114 -1.358978 
2.737446 3.341570 2.986339 13.108410 0.581721 -1.367889 
2.737172 3.341541 2.986374 13.119520 0.562321 -1.360229 
2.737022 3.341742 2.986320 13.114090 0.584160 -1.366547 
2.736854 3.341809 2.986242 13.130030 0.575456 -1.358643 
2.736811 3.341687 2.986383 13.124500 0.568999 -1.364685 
2.736963 3.341705 2.986316 13.119220 0.584404 -1.368408 
2.737094 3.341758 2.986223 13.128160 0.595641 -1.377960 
2.737271 3.341805 2.986141 13.124960 0.586777 -1.358398 
2.737475 3.341615 2.986264 13.117810 0.579942 -1.371033 
2.737535 3.341687 2.985998 13.114450 0.579871 -1.392303 
2.737511 3.341727 2.986053 13.117110 0.576173 -1.390594 
2.737599 3.341583 2.986204 13.116110 0.565545 -1.365906 
2.737110 3.341524 2.986452 13.103150 0.623818 -1.338318 
2.737333 3.341541 2.986628 13.091630 0.570873 -1.385742 
2.737348 3.341895 2.986889 13.089150 0.496232 -1.416626 
2.737465 3.341671 2.986682 13.126440 0.562077 -1.379333 
2.737411 3.341951 2.986796 13.130270 0.502322 -1.416382 
2.737585 3.341523 2.986354 13.172150 0.637315 -1.344635 
2.737327 3.341964 2.986470 13.140220 0.514182 -1.407166 
2.737252 3.341936 2.986408 13.110850 0.518008 -1.400421 
2.737065 3.341989 2.986454 13.095670 0.521979 -1.395782 
2.737306 3.341881 2.986170 13.118900 0.518621 -1.393311 
2.737478 3.341838 2.985836 13.121600 0.525506 -1.383606 
2.737453 3.341823 2.985862 13.133250 0.527048 -1.391052 
2.737434 3.341778 2.985885 13.140610 0.525143 -1.388733 
2.737517 3.341458 2.985798 13.156820 0.619180 -1.357452 
2.737430 3.341648 2.985940 13.132350 0.539642 -1.385406 
2.737226 3.341580 2.986291 13.117640 0.510607 -1.403900 
2.737286 3.341748 2.986379 13.109350 0.511401 -1.397827 
2.737270 3.341802 2.986540 13.095140 0.505208 -1.402679 
2.737406 3.341887 2.986676 13.105740 0.522553 -1.414917 
2.737297 3.341748 2.986815 13.124470 0.511395 -1.404877 
2.737564 3.341712 2.986673 13.104790 0.515288 -1.410950 
2.737407 3.341815 2.986600 13.119960 0.527583 -1.401428 
2.737474 3.341825 2.986250 13.115820 0.524939 -1.396332 
2.737538 3.341723 2.985936 13.129690 0.524881 -1.401642 
2.737512 3.341738 2.985557 13.113680 0.524856 -1.397736 
2.737353 3.341672 2.985076 13.093850 0.514846 -1.405701 
2.737516 3.341392 2.984658 13.099470 0.563838 -1.368683 
2.737566 3.341654 2.984483 13.104370 0.457654 -1.416718 
2.737480 3.341526 2.984402 13.080830 0.510082 -1.402435 
2.737541 3.341467 2.984500 13.088900 0.511626 -1.400848 
2.737550 3.341415 2.984725 13.097030 0.512790 -1.381470 
2.737603 3.341567 2.985209 13.104100 0.524076 -1.395782 
2.737645 3.341407 2.985529 13.120020 0.584160 -1.358826 
2.737600 3.341497 2.985845 13.123540 0.583609 -1.361328 
2.737675 3.341445 2.986175 13.112040 0.574285 -1.367432 
2.737639 3.341333 2.986477 13.113450 0.561558 -1.358612 
2.737872 3.341409 2.986606 13.103150 0.579201 -1.366516 
2.738038 3.341322 2.986831 13.105530 0.586221 -1.351471 
2.738039 3.341373 2.987015 13.111000 0.596257 -1.348633 
2.738070 3.341392 2.987122 13.106250 0.595955 -1.340576 
2.738122 3.341393 2.987147 13.119800 0.591403 -1.329376 
2.737772 3.341220 2.987188 13.079900 0.605955 -1.345184 
2.737956 3.341118 2.986992 13.147940 0.626052 -1.341797 
2.737809 3.341231 2.987059 13.128060 0.627152 -1.325653 
2.737665 3.341117 2.986907 13.133220 0.618882 -1.322449 
2.737091 3.342103 2.986985 13.036350 0.409781 -1.463684 
2.737139 3.341976 2.986787 13.038630 0.412991 -1.455322 
2.737166 3.341793 2.986459 13.098660 0.490931 -1.413208 
2.737662 3.341309 2.985734 13.140940 0.574505 -1.356873 
2.737548 3.341208 2.985209 13.142990 0.580528 -1.351807 
2.737426 3.341360 2.984865 13.107450 0.521656 -1.379272 
2.737476 3.341198 2.984341 13.116040 0.555075 -1.358673 
2.737516 3.341215 2.984184 13.109610 0.539002 -1.366516 
2.737704 3.341151 2.984033 13.112540 0.546228 -1.372986 
2.737711 3.341108 2.983824 13.111710 0.543607 -1.377960 
2.737662 3.341242 2.983568 13.124280 0.536325 -1.362762 
2.737608 3.341163 2.983683 13.112580 0.536561 -1.372650 
2.737707 3.340606 2.983578 13.119690 0.673181 -1.297699 
2.737576 3.341157 2.983933 13.109670 0.539017 -1.378723 
2.737378 3.341160 2.984107 13.105340 0.542904 -1.362518 
2.737341 3.341212 2.984279 13.127340 0.553420 -1.341095 
2.737432 3.341234 2.984761 13.129020 0.547404 -1.363922 
2.737455 3.341216 2.985046 13.108050 0.547098 -1.362427 
2.737515 3.341279 2.985461 13.130410 0.547406 -1.367584 
2.737444 3.341342 2.985723 13.139210 0.555619 -1.368622 
2.737630 3.340914 2.985984 13.169790 0.626052 -1.329895 
2.737686 3.341033 2.986124 13.155130 0.641888 -1.341675 
2.737863 3.340952 2.986178 13.142400 0.634917 -1.336548 
2.737794 3.340952 2.986357 13.145470 0.637821 -1.327637 
2.737566 3.340750 2.986252 13.106310 0.690565 -1.289398 
2.737744 3.341008 2.986631 13.137170 0.630631 -1.327545 
2.737659 3.341042 2.986931 13.143590 0.623210 -1.327606 
2.737321 3.341054 2.987002 13.109840 0.642800 -1.304108 
2.737412 3.341026 2.987109 13.122790 0.644227 -1.313782 
2.737358 3.341014 2.987223 13.129160 0.645724 -1.308197 
2.737334 3.341037 2.987162 13.127620 0.646344 -1.288361 
2.737284 3.340798 2.987008 13.120950 0.692446 -1.283722 
2.737103 3.340875 2.986938 13.129780 0.691526 -1.273499 
2.737077 3.340812 2.986768 13.101580 0.668474 -1.258850 
2.737137 3.341086 2.986874 13.108390 0.632788 -1.290985 
2.736959 3.341081 2.986585 13.123190 0.637972 -1.308105 
2.737377 3.341078 2.986130 13.145570 0.629978 -1.330170 
2.737422 3.341062 2.985714 13.155220 0.624709 -1.324615 
2.737379 3.341352 2.985560 13.129140 0.563318 -1.387146 
2.737523 3.341311 2.984933 13.122470 0.543422 -1.374451 
2.737627 3.341082 2.984710 13.109910 0.553466 -1.359741 
2.737676 3.341156 2.984531 13.102330 0.560443 -1.368439 
2.737761 3.341214 2.984641 13.126910 0.554820 -1.362701 
2.737695 3.340507 2.984242 13.101580 0.698468 -1.266144 
2.737612 3.341125 2.984594 13.098500 0.540892 -1.359772 
2.737611 3.341166 2.984815 13.114400 0.544079 -1.363007 
2.737715 3.341226 2.984941 13.126290 0.546104 -1.366394 
2.737725 3.341233 2.985193 13.138560 0.549668 -1.376068 
2.737788 3.341295 2.985421 13.137750 0.562940 -1.364990 
2.738135 3.340981 2.985536 13.153880 0.641952 -1.325867 
2.738234 3.341044 2.985754 13.147530 0.637465 -1.330139 
2.738216 3.341064 2.986114 13.147950 0.632621 -1.334015 
2.738210 3.341063 2.986336 13.145620 0.625108 -1.333801 
2.738328 3.341156 2.986644 13.149180 0.615733 -1.318298 
